<svg version="1.1" id="Layer_1" xmlns="http://www.w3.org/2000/svg" xmlns:xlink="http://www.w3.org/1999/xlink" x="0px" y="0px"
	 width="100%" viewBox="0 0 427 81" enable-background="new 0 0 427 81" xml:space="preserve">
<path fill="#000000" opacity="1.000000" stroke="none" 
	d="
M314.000000,82.000000 
	C209.333344,82.000000 105.166695,82.000000 1.000028,82.000000 
	C1.000019,55.000015 1.000019,28.000031 1.000009,1.000035 
	C143.333298,1.000023 285.666595,1.000023 427.999939,1.000012 
	C427.999939,27.999964 427.999939,54.999928 427.999969,81.999947 
	C390.166656,82.000000 352.333344,82.000000 314.000000,82.000000 
M232.152344,33.335026 
	C232.379272,32.223114 232.606201,31.111202 232.967041,29.259182 
	C230.997849,26.463686 231.809265,21.700884 226.671753,20.222240 
	C225.404526,18.132578 224.137314,16.042915 222.243149,12.919421 
	C221.253754,12.710609 219.785355,12.912301 219.883820,16.125929 
	C219.924454,17.452364 218.667038,18.818567 217.232285,20.020922 
	C216.193085,18.666529 215.153885,17.312138 214.006760,15.299968 
	C213.321899,15.163814 212.637039,15.027659 211.270111,15.281121 
	C210.249985,16.853165 209.429276,19.551477 208.170288,19.774389 
	C205.077972,20.321890 204.980194,22.032990 204.987137,24.343430 
	C205.017654,34.501923 205.031342,44.660725 204.979675,54.819050 
	C204.965378,57.630455 204.767914,60.251144 208.880630,60.182186 
	C209.569611,60.170631 210.466949,61.900341 210.947296,62.969547 
	C211.487656,64.172340 211.664642,65.538376 212.692413,66.967461 
	C213.166595,66.325645 213.640793,65.683830 214.797485,64.630592 
	C214.925507,63.229214 215.053543,61.827835 215.197113,60.256424 
	C216.523254,60.108887 217.761993,59.971073 219.728043,60.288799 
	C219.884720,62.724754 220.041382,65.160713 220.210495,67.789909 
	C221.767365,67.789909 223.178284,67.789909 223.248459,67.789909 
	C224.283752,64.795158 225.141403,62.314270 226.718979,59.754150 
	C228.149719,58.447174 229.580475,57.140194 231.526993,55.902428 
	C231.629105,55.608212 231.731201,55.313995 231.984390,54.573345 
	C231.984390,54.573345 232.049576,54.106567 232.690491,53.775928 
	C233.252014,51.210640 236.694016,49.068779 233.977051,45.263721 
	C232.356674,42.856205 230.736282,40.448692 229.679138,37.800972 
	C229.824310,37.214832 229.969482,36.628693 230.573608,35.983635 
	C230.573608,35.983635 231.011292,35.833477 231.527084,35.902561 
	C231.629181,35.608360 231.731277,35.314163 231.956467,34.503868 
	C231.915451,34.331837 231.874435,34.159801 232.152344,33.335026 
M303.483093,59.999275 
	C304.584381,59.899433 305.685638,59.799591 307.604523,59.625629 
	C304.425903,52.893234 301.477051,46.647495 298.481995,40.303902 
	C303.846161,37.938694 304.649780,33.009045 303.923096,27.631170 
	C303.352051,23.405190 300.317230,20.704655 296.384216,20.320402 
	C290.699524,19.765017 284.920197,20.178286 279.243896,20.178286 
	C279.243896,33.704422 279.243896,46.636276 279.243896,59.701824 
	C281.206268,59.701824 282.921722,59.701824 285.126099,59.701824 
	C285.126099,54.007156 285.126099,48.591080 285.126099,43.220848 
	C292.058197,42.829617 293.633606,43.752693 296.196747,49.630829 
	C297.234070,52.009827 297.872314,54.590523 299.127075,56.836445 
	C299.855164,58.139603 301.447174,58.960087 303.483093,59.999275 
M318.715302,29.763439 
	C310.725800,31.370560 308.334869,44.061913 310.891724,51.831894 
	C313.787659,60.632248 323.764038,64.407516 331.664978,59.746403 
	C340.944214,54.272167 340.354767,38.559685 335.444672,32.822914 
	C330.826263,27.426996 324.978180,29.207041 318.715302,29.763439 
M158.525269,57.980854 
	C167.335495,64.051682 179.866989,61.792873 182.192780,52.173595 
	C183.185501,48.067825 183.197479,43.591511 182.891617,39.338490 
	C182.497086,33.852818 178.266693,29.733929 173.287582,29.018354 
	C165.141754,27.847675 158.512970,30.352394 156.511963,36.122337 
	C154.030121,43.278748 153.639801,50.556610 158.525269,57.980854 
M25.382412,30.125275 
	C29.941631,22.463436 34.454018,21.956726 45.567001,27.944304 
	C48.335884,24.995481 46.611462,22.542919 44.141647,21.140421 
	C38.009884,17.658470 31.586279,17.940903 25.377382,21.152651 
	C16.761209,25.609644 15.705026,38.618721 17.716965,48.118095 
	C18.294943,50.847012 19.752266,53.596291 21.458324,55.840687 
	C26.450499,62.408142 33.776470,61.701164 40.585712,60.611828 
	C46.039703,59.739304 47.454006,56.720604 46.102348,51.759460 
	C43.905594,52.896732 41.817848,54.095692 39.634937,55.084583 
	C34.036655,57.620689 27.097452,55.196289 25.072813,49.834049 
	C22.702932,43.557442 21.904591,37.176491 25.382412,30.125275 
M63.009716,60.993626 
	C66.610367,58.328812 70.891144,60.759411 74.992035,59.653965 
	C74.992035,52.649960 75.221863,45.848408 74.921555,39.070343 
	C74.667175,33.328968 71.642387,29.511560 67.379173,29.079960 
	C64.420082,28.780390 61.319252,28.588932 58.438175,29.150990 
	C55.137657,29.794872 51.026455,30.477636 52.367641,35.993031 
	C56.111969,35.294140 59.556404,34.277023 63.043968,34.097416 
	C67.165863,33.885132 68.982361,36.742176 68.446701,42.000156 
	C66.339417,42.000156 64.133591,41.675381 62.070652,42.079678 
	C59.286911,42.625244 56.199390,43.150043 53.983562,44.726051 
	C50.110607,47.480690 50.237736,51.923466 51.568420,55.956585 
	C53.246593,61.042885 57.694550,61.267750 63.009716,60.993626 
M388.817566,41.381508 
	C386.046295,41.588890 383.275208,41.798534 380.503754,42.003181 
	C375.102509,42.402020 370.777740,47.143230 371.002106,52.423138 
	C371.227661,57.731468 374.913452,61.206085 380.687897,60.930561 
	C385.380066,60.706676 390.042908,59.868748 394.996063,59.269596 
	C394.996063,52.073986 395.239288,44.763233 394.896881,37.480015 
	C394.716736,33.648140 393.129181,29.657049 388.732605,29.193537 
	C384.737305,28.772327 380.583160,29.534885 376.533417,30.047213 
	C372.810730,30.518167 372.243134,32.775513 373.734436,36.251881 
	C375.905945,35.487675 377.842010,34.607735 379.872620,34.128338 
	C386.376007,32.592979 388.870636,34.396172 388.817566,41.381508 
M360.505096,37.994522 
	C358.896088,42.749680 357.287048,47.504841 355.535797,52.680305 
	C352.746033,44.808575 350.157013,37.503372 347.612061,30.322384 
	C345.331421,30.322384 343.277557,30.322384 340.880615,30.322384 
	C343.752258,38.000385 346.368408,45.326057 349.238251,52.550964 
	C351.121826,57.292973 353.136719,61.830761 350.038666,66.890213 
	C349.233948,68.204391 349.325897,70.067650 349.022217,71.597069 
	C353.398041,72.708649 355.296112,71.624962 356.307007,67.604576 
	C357.606171,62.437611 359.990601,57.551250 361.767792,52.494911 
	C364.323578,45.223366 366.753357,37.907562 369.239075,30.604313 
	C362.015717,28.195648 362.085907,33.440178 360.505096,37.994522 
M128.874969,59.100624 
	C128.916946,53.440765 128.904083,47.779808 129.018005,42.121395 
	C129.111191,37.493187 132.416473,33.798744 136.492386,34.056622 
	C141.339676,34.363300 141.961395,38.032295 141.988724,41.879723 
	C142.030930,47.824913 141.999832,53.770626 141.999832,60.023876 
	C144.327515,59.919476 146.046417,59.842381 147.994675,59.755001 
	C147.994675,52.631073 148.252975,45.973900 147.928360,39.345272 
	C147.535202,31.317133 141.717758,27.109039 134.024231,29.156773 
	C131.948486,29.709261 130.152924,31.314510 128.228760,32.436527 
	C128.333313,31.991173 128.437881,31.545818 128.542435,31.100464 
	C126.859726,30.677002 125.177025,30.253540 123.011230,29.708508 
	C123.011230,39.701317 123.006149,48.681828 123.022087,57.662300 
	C123.023209,58.296749 123.179253,58.930916 123.298027,59.827682 
	C125.067078,59.827682 126.683144,59.827682 128.874969,59.100624 
M98.483353,29.896662 
	C96.233948,29.597786 93.992661,29.185511 91.733429,29.023989 
	C87.235008,28.702372 83.275520,29.958460 82.108788,34.744720 
	C80.746223,40.334343 83.560608,44.797054 88.730003,46.966999 
	C91.347252,48.065639 93.785767,49.590096 96.526215,51.038944 
	C92.377769,59.824383 86.544220,54.621601 81.584846,54.036438 
	C80.720085,59.206459 80.693008,59.362408 85.036186,60.464622 
	C87.078209,60.982849 89.286713,60.963760 91.421089,60.976948 
	C97.614258,61.015213 99.907913,59.176815 101.375847,53.200638 
	C102.645599,48.031273 99.601906,45.325760 95.591476,43.272316 
	C93.864281,42.387939 91.738472,42.100910 90.273926,40.937859 
	C88.926094,39.867496 88.222275,37.986187 87.234756,36.462109 
	C89.115250,35.445717 90.928421,33.794670 92.894608,33.586105 
	C94.985466,33.364315 97.221313,34.509312 100.132858,35.243977 
	C99.800888,33.159340 99.558853,31.639460 98.483353,29.896662 
M269.156189,60.988556 
	C270.371216,59.387043 271.586212,57.785530 272.801239,56.184017 
	C272.438507,55.805759 272.075775,55.427502 271.713043,55.049244 
	C268.301483,56.181435 264.568237,57.062263 264.135345,52.232136 
	C263.636780,46.669163 264.019531,41.027203 264.019531,35.250324 
	C266.898315,35.062492 269.306824,34.905342 272.010254,34.728951 
	C271.889343,33.013393 271.791595,31.626881 271.690491,30.192516 
	C268.919678,30.030333 266.519897,29.889864 264.164032,29.751968 
	C264.024353,26.942339 263.910980,24.661987 263.794006,22.309460 
	C261.760162,22.309460 260.039734,22.309460 257.986328,22.309460 
	C257.986328,24.886309 257.986328,27.163103 257.986328,29.589787 
	C256.171661,29.913347 254.635193,30.187307 253.098709,30.461267 
	C252.827347,30.907415 252.555969,31.353563 252.284607,31.799711 
	C254.063782,33.298325 255.842972,34.796940 258.000000,36.613819 
	C258.000000,40.904766 257.995728,45.887135 258.001007,50.869492 
	C258.009186,58.594006 260.453247,60.997463 269.156189,60.988556 
M404.123047,59.085270 
	C405.898956,59.464020 407.674866,59.842773 409.702606,60.275238 
	C409.702606,45.424156 409.702606,31.359941 409.702606,16.988287 
	C407.669922,17.080151 405.950775,17.157845 404.020172,17.245094 
	C404.020172,31.202019 404.020172,44.675804 404.123047,59.085270 
M109.614723,59.970421 
	C111.021034,59.879063 112.427338,59.787704 113.741226,59.702351 
	C113.741226,49.596233 113.741226,39.993980 113.741226,30.318279 
	C111.754463,30.318279 110.038559,30.318279 108.694511,30.318279 
	C108.694511,40.365459 108.694511,50.095871 109.614723,59.970421 
M247.979843,58.157368 
	C247.979843,48.880615 247.979843,39.603863 247.979843,30.347715 
	C245.714600,30.347715 243.998276,30.347715 242.384735,30.347715 
	C242.384735,40.411263 242.384735,50.129547 242.384735,60.446056 
	C244.546188,59.911652 246.212128,59.499756 247.979843,58.157368 
M248.434265,23.990913 
	C249.197617,18.821913 248.759033,18.499531 242.284409,19.547874 
	C242.284409,21.253744 242.284409,22.970354 242.284409,25.055502 
	C244.336060,24.891691 246.084869,24.752060 248.434265,23.990913 
M111.318344,19.002756 
	C106.060661,18.633492 108.555397,22.265549 107.766479,25.975731 
	C110.827820,24.778307 112.865509,23.981279 114.903191,23.184252 
	C113.993347,21.793274 113.083504,20.402296 111.318344,19.002756 
z"/>
<path fill="#FF0000" opacity="1.000000" stroke="none" 
	d="
M303.066772,59.998524 
	C301.447174,58.960087 299.855164,58.139603 299.127075,56.836445 
	C297.872314,54.590523 297.234070,52.009827 296.196747,49.630829 
	C293.633606,43.752693 292.058197,42.829617 285.126099,43.220848 
	C285.126099,48.591080 285.126099,54.007156 285.126099,59.701824 
	C282.921722,59.701824 281.206268,59.701824 279.243896,59.701824 
	C279.243896,46.636276 279.243896,33.704422 279.243896,20.178286 
	C284.920197,20.178286 290.699524,19.765017 296.384216,20.320402 
	C300.317230,20.704655 303.352051,23.405190 303.923096,27.631170 
	C304.649780,33.009045 303.846161,37.938694 298.481995,40.303902 
	C301.477051,46.647495 304.425903,52.893234 307.604523,59.625629 
	C305.685638,59.799591 304.584381,59.899433 303.066772,59.998524 
M296.913940,27.656023 
	C293.548004,23.741282 289.347015,24.982294 285.400330,25.375202 
	C285.400330,29.798025 285.400330,33.827282 285.400330,37.821960 
	C295.172760,38.297031 299.168732,34.969513 296.913940,27.656023 
z"/>
<path fill="#FF0000" opacity="1.000000" stroke="none" 
	d="
M319.035095,29.488995 
	C324.978180,29.207041 330.826263,27.426996 335.444672,32.822914 
	C340.354767,38.559685 340.944214,54.272167 331.664978,59.746403 
	C323.764038,64.407516 313.787659,60.632248 310.891724,51.831894 
	C308.334869,44.061913 310.725800,31.370560 319.035095,29.488995 
M330.564178,52.907814 
	C331.353790,50.618961 332.405182,48.382763 332.878387,46.030258 
	C333.855255,41.173721 329.789001,34.635475 325.895599,33.966419 
	C320.112488,32.972626 316.127716,38.344398 316.006500,44.101490 
	C315.910614,48.654949 316.563324,53.079739 321.047760,55.389919 
	C324.268127,57.048889 327.421631,56.009239 330.564178,52.907814 
z"/>
<path fill="#FF0000" opacity="1.000000" stroke="none" 
	d="
M158.300186,57.658386 
	C153.639801,50.556610 154.030121,43.278748 156.511963,36.122337 
	C158.512970,30.352394 165.141754,27.847675 173.287582,29.018354 
	C178.266693,29.733929 182.497086,33.852818 182.891617,39.338490 
	C183.197479,43.591511 183.185501,48.067825 182.192780,52.173595 
	C179.866989,61.792873 167.335495,64.051682 158.300186,57.658386 
M176.234802,38.713165 
	C174.839233,35.113064 172.027252,33.912540 168.390869,33.993202 
	C164.650543,34.076164 162.457001,36.296864 161.933823,39.603363 
	C161.388016,43.052711 161.176239,46.733986 161.782318,50.142467 
	C162.590942,54.689865 165.993317,56.838531 170.565399,55.899803 
	C174.991562,54.991043 177.196777,51.953632 177.006424,47.322147 
	C176.897278,44.666531 176.855728,42.008137 176.234802,38.713165 
z"/>
<path fill="#FF0000" opacity="1.000000" stroke="none" 
	d="
M25.209127,30.482994 
	C21.904591,37.176491 22.702932,43.557442 25.072813,49.834049 
	C27.097452,55.196289 34.036655,57.620689 39.634937,55.084583 
	C41.817848,54.095692 43.905594,52.896732 46.102348,51.759460 
	C47.454006,56.720604 46.039703,59.739304 40.585712,60.611828 
	C33.776470,61.701164 26.450499,62.408142 21.458324,55.840687 
	C19.752266,53.596291 18.294943,50.847012 17.716965,48.118095 
	C15.705026,38.618721 16.761209,25.609644 25.377382,21.152651 
	C31.586279,17.940903 38.009884,17.658470 44.141647,21.140421 
	C46.611462,22.542919 48.335884,24.995481 45.567001,27.944304 
	C34.454018,21.956726 29.941631,22.463436 25.209127,30.482994 
z"/>
<path fill="#FF0000" opacity="1.000000" stroke="none" 
	d="
M62.587395,60.996273 
	C57.694550,61.267750 53.246593,61.042885 51.568420,55.956585 
	C50.237736,51.923466 50.110607,47.480690 53.983562,44.726051 
	C56.199390,43.150043 59.286911,42.625244 62.070652,42.079678 
	C64.133591,41.675381 66.339417,42.000156 68.446701,42.000156 
	C68.982361,36.742176 67.165863,33.885132 63.043968,34.097416 
	C59.556404,34.277023 56.111969,35.294140 52.367641,35.993031 
	C51.026455,30.477636 55.137657,29.794872 58.438175,29.150990 
	C61.319252,28.588932 64.420082,28.780390 67.379173,29.079960 
	C71.642387,29.511560 74.667175,33.328968 74.921555,39.070343 
	C75.221863,45.848408 74.992035,52.649960 74.992035,59.653965 
	C70.891144,60.759411 66.610367,58.328812 62.587395,60.996273 
M62.437077,46.887074 
	C58.570045,46.842369 56.543701,48.597675 57.048698,52.605278 
	C57.445900,55.757439 59.869663,56.901875 62.489719,56.681686 
	C66.402542,56.352859 69.272743,50.956818 68.350807,45.966183 
	C66.642494,46.103954 64.883415,46.245823 62.437077,46.887074 
z"/>
<path fill="#FF0000" opacity="1.000000" stroke="none" 
	d="
M388.892761,40.940998 
	C388.870636,34.396172 386.376007,32.592979 379.872620,34.128338 
	C377.842010,34.607735 375.905945,35.487675 373.734436,36.251881 
	C372.243134,32.775513 372.810730,30.518167 376.533417,30.047213 
	C380.583160,29.534885 384.737305,28.772327 388.732605,29.193537 
	C393.129181,29.657049 394.716736,33.648140 394.896881,37.480015 
	C395.239288,44.763233 394.996063,52.073986 394.996063,59.269596 
	C390.042908,59.868748 385.380066,60.706676 380.687897,60.930561 
	C374.913452,61.206085 371.227661,57.731468 371.002106,52.423138 
	C370.777740,47.143230 375.102509,42.402020 380.503754,42.003181 
	C383.275208,41.798534 386.046295,41.588890 388.892761,40.940998 
M388.863281,46.772827 
	C385.675323,47.251369 382.336121,47.326557 379.383881,48.433708 
	C378.390259,48.806332 377.439667,52.510197 378.136536,53.434303 
	C379.233185,54.888458 381.808929,56.108078 383.638611,55.958733 
	C388.574677,55.555840 389.373077,51.822109 388.863281,46.772827 
z"/>
<path fill="#FF0000" opacity="1.000000" stroke="none" 
	d="
M360.709900,37.645569 
	C362.085907,33.440178 362.015717,28.195648 369.239075,30.604313 
	C366.753357,37.907562 364.323578,45.223366 361.767792,52.494911 
	C359.990601,57.551250 357.606171,62.437611 356.307007,67.604576 
	C355.296112,71.624962 353.398041,72.708649 349.022217,71.597069 
	C349.325897,70.067650 349.233948,68.204391 350.038666,66.890213 
	C353.136719,61.830761 351.121826,57.292973 349.238251,52.550964 
	C346.368408,45.326057 343.752258,38.000385 340.880615,30.322384 
	C343.277557,30.322384 345.331421,30.322384 347.612061,30.322384 
	C350.157013,37.503372 352.746033,44.808575 355.535797,52.680305 
	C357.287048,47.504841 358.896088,42.749680 360.709900,37.645569 
z"/>
<path fill="#FF0000" opacity="1.000000" stroke="none" 
	d="
M128.587097,59.464153 
	C126.683144,59.827682 125.067078,59.827682 123.298027,59.827682 
	C123.179253,58.930916 123.023209,58.296749 123.022087,57.662300 
	C123.006149,48.681828 123.011230,39.701317 123.011230,29.708508 
	C125.177025,30.253540 126.859726,30.677002 128.542435,31.100464 
	C128.437881,31.545818 128.333313,31.991173 128.228760,32.436527 
	C130.152924,31.314510 131.948486,29.709261 134.024231,29.156773 
	C141.717758,27.109039 147.535202,31.317133 147.928360,39.345272 
	C148.252975,45.973900 147.994675,52.631073 147.994675,59.755001 
	C146.046417,59.842381 144.327515,59.919476 141.999832,60.023876 
	C141.999832,53.770626 142.030930,47.824913 141.988724,41.879723 
	C141.961395,38.032295 141.339676,34.363300 136.492386,34.056622 
	C132.416473,33.798744 129.111191,37.493187 129.018005,42.121395 
	C128.904083,47.779808 128.916946,53.440765 128.587097,59.464153 
z"/>
<path fill="#F6B103" opacity="1.000000" stroke="none" 
	d="
M214.114685,15.957746 
	C215.153885,17.312138 216.193085,18.666529 217.737427,20.386290 
	C219.495346,22.112196 220.748123,23.472734 221.543488,24.905544 
	C217.821609,24.977814 214.557144,24.977814 211.304657,24.977814 
	C211.304657,29.303604 211.304657,33.028122 211.304657,37.166523 
	C214.737732,37.166523 217.868790,37.166523 220.970581,37.491577 
	C220.294205,39.155533 219.647095,40.494438 218.575836,41.905495 
	C216.434540,41.929554 214.717407,41.881462 212.850067,41.530846 
	C211.616409,41.257885 210.532928,41.287445 209.449463,41.317005 
	C209.910767,45.211456 210.372070,49.105904 210.923950,53.424530 
	C212.444458,54.232395 213.853622,54.765316 215.308777,54.968155 
	C218.180145,55.368416 221.076996,55.585800 223.852448,56.148136 
	C223.494385,56.944973 223.247192,57.472485 222.649567,58.005791 
	C221.199661,58.618809 220.100204,59.226036 219.000732,59.833260 
	C217.761993,59.971073 216.523254,60.108887 215.197113,60.256424 
	C215.053543,61.827835 214.925507,63.229214 214.166382,64.903198 
	C213.023422,65.728333 212.511551,66.280869 211.999695,66.833405 
	C211.664642,65.538376 211.487656,64.172340 210.947296,62.969547 
	C210.466949,61.900341 209.569611,60.170631 208.880630,60.182186 
	C204.767914,60.251144 204.965378,57.630455 204.979675,54.819050 
	C205.031342,44.660725 205.017654,34.501923 204.987137,24.343430 
	C204.980194,22.032990 205.077972,20.321890 208.170288,19.774389 
	C209.429276,19.551477 210.249985,16.853165 211.838364,15.294554 
	C212.975967,15.524572 213.545334,15.741159 214.114685,15.957746 
z"/>
<path fill="#FF0000" opacity="1.000000" stroke="none" 
	d="
M98.900085,30.008120 
	C99.558853,31.639460 99.800888,33.159340 100.132858,35.243977 
	C97.221313,34.509312 94.985466,33.364315 92.894608,33.586105 
	C90.928421,33.794670 89.115250,35.445717 87.234756,36.462112 
	C88.222275,37.986187 88.926094,39.867496 90.273926,40.937859 
	C91.738472,42.100910 93.864281,42.387939 95.591476,43.272316 
	C99.601906,45.325760 102.645599,48.031273 101.375847,53.200638 
	C99.907913,59.176815 97.614258,61.015213 91.421089,60.976948 
	C89.286713,60.963760 87.078209,60.982849 85.036186,60.464622 
	C80.693008,59.362408 80.720085,59.206459 81.584846,54.036438 
	C86.544220,54.621601 92.377769,59.824383 96.526215,51.038944 
	C93.785767,49.590096 91.347252,48.065639 88.730003,46.966999 
	C83.560608,44.797054 80.746223,40.334343 82.108788,34.744720 
	C83.275520,29.958460 87.235008,28.702372 91.733429,29.023989 
	C93.992661,29.185511 96.233948,29.597786 98.900085,30.008120 
z"/>
<path fill="#FF0000" opacity="1.000000" stroke="none" 
	d="
M268.722107,60.993294 
	C260.453247,60.997463 258.009186,58.594006 258.001007,50.869492 
	C257.995728,45.887135 258.000000,40.904766 258.000000,36.613819 
	C255.842972,34.796940 254.063782,33.298325 252.284607,31.799711 
	C252.555969,31.353563 252.827347,30.907415 253.098709,30.461267 
	C254.635193,30.187307 256.171661,29.913347 257.986328,29.589787 
	C257.986328,27.163103 257.986328,24.886309 257.986328,22.309460 
	C260.039734,22.309460 261.760162,22.309460 263.794006,22.309460 
	C263.910980,24.661987 264.024353,26.942339 264.164032,29.751968 
	C266.519897,29.889864 268.919678,30.030333 271.690491,30.192516 
	C271.791595,31.626881 271.889343,33.013393 272.010254,34.728951 
	C269.306824,34.905342 266.898315,35.062492 264.019531,35.250324 
	C264.019531,41.027203 263.636780,46.669163 264.135345,52.232136 
	C264.568237,57.062263 268.301483,56.181435 271.713043,55.049244 
	C272.075775,55.427502 272.438507,55.805759 272.801239,56.184017 
	C271.586212,57.785530 270.371216,59.387043 268.722107,60.993294 
z"/>
<path fill="#FF0000" opacity="1.000000" stroke="none" 
	d="
M404.071594,58.617432 
	C404.020172,44.675804 404.020172,31.202019 404.020172,17.245094 
	C405.950775,17.157845 407.669922,17.080151 409.702606,16.988287 
	C409.702606,31.359941 409.702606,45.424156 409.702606,60.275238 
	C407.674866,59.842773 405.898956,59.464020 404.071594,58.617432 
z"/>
<path fill="#FF0000" opacity="1.000000" stroke="none" 
	d="
M109.154617,59.898354 
	C108.694511,50.095871 108.694511,40.365459 108.694511,30.318279 
	C110.038559,30.318279 111.754463,30.318279 113.741226,30.318279 
	C113.741226,39.993980 113.741226,49.596233 113.741226,59.702351 
	C112.427338,59.787704 111.021034,59.879063 109.154617,59.898354 
z"/>
<path fill="#FF0000" opacity="1.000000" stroke="none" 
	d="
M247.928955,58.622616 
	C246.212128,59.499756 244.546188,59.911652 242.384735,60.446056 
	C242.384735,50.129547 242.384735,40.411263 242.384735,30.347715 
	C243.998276,30.347715 245.714600,30.347715 247.979843,30.347715 
	C247.979843,39.603863 247.979843,48.880615 247.928955,58.622616 
z"/>
<path fill="#F6B103" opacity="1.000000" stroke="none" 
	d="
M218.999969,41.833344 
	C219.647095,40.494438 220.294205,39.155533 221.359833,37.419460 
	C223.479828,36.334858 225.181335,35.647419 227.176270,35.025276 
	C227.979813,35.393711 228.489914,35.696857 228.850037,36.186649 
	C228.838699,36.929256 228.977295,37.485218 229.115906,38.041176 
	C230.736282,40.448692 232.356674,42.856205 233.538696,45.549446 
	C231.360443,45.569458 229.620529,45.303745 227.551285,44.889637 
	C224.481277,43.771942 221.740631,42.802643 218.999969,41.833344 
z"/>
<path fill="#F6B103" opacity="1.000000" stroke="none" 
	d="
M222.000900,24.833275 
	C220.748123,23.472734 219.495346,22.112196 218.121277,20.459171 
	C218.667038,18.818567 219.924454,17.452364 219.883820,16.125929 
	C219.785355,12.912301 221.253754,12.710609 222.243149,12.919421 
	C224.137314,16.042915 225.404526,18.132578 226.869537,20.913666 
	C226.115616,23.294628 231.241150,26.311785 225.578339,26.914965 
	C224.184464,26.138945 223.092682,25.486111 222.000900,24.833275 
z"/>
<path fill="#F6B103" opacity="1.000000" stroke="none" 
	d="
M227.880615,45.038033 
	C229.620529,45.303745 231.360443,45.569458 233.466919,45.917809 
	C236.694016,49.068779 233.252014,51.210640 232.104736,53.723301 
	C230.640213,53.460453 229.761459,53.250229 228.560211,52.863583 
	C228.118698,50.137451 227.999664,47.587738 227.880615,45.038033 
z"/>
<path fill="#F6B103" opacity="1.000000" stroke="none" 
	d="
M219.364380,60.061031 
	C220.100204,59.226036 221.199661,58.618809 222.971924,58.028168 
	C224.429504,58.640961 225.214264,59.237167 225.999054,59.833374 
	C225.141403,62.314270 224.283752,64.795158 223.248459,67.789909 
	C223.178284,67.789909 221.767365,67.789909 220.210495,67.789909 
	C220.041382,65.160713 219.884720,62.724754 219.364380,60.061031 
z"/>
<path fill="#FF0000" opacity="1.000000" stroke="none" 
	d="
M248.133972,24.301670 
	C246.084869,24.752060 244.336060,24.891691 242.284409,25.055502 
	C242.284409,22.970354 242.284409,21.253744 242.284409,19.547874 
	C248.759033,18.499531 249.197617,18.821913 248.133972,24.301670 
z"/>
<path fill="#FF0000" opacity="1.000000" stroke="none" 
	d="
M111.746002,19.007038 
	C113.083504,20.402296 113.993347,21.793274 114.903191,23.184252 
	C112.865509,23.981279 110.827820,24.778307 107.766479,25.975731 
	C108.555397,22.265549 106.060661,18.633492 111.746002,19.007038 
z"/>
<path fill="#F6B103" opacity="1.000000" stroke="none" 
	d="
M225.880447,27.038151 
	C231.241150,26.311785 226.115616,23.294628 227.054749,21.245018 
	C231.809265,21.700884 230.997849,26.463686 232.495529,29.629387 
	C230.404922,29.999420 228.785812,29.999249 227.028641,29.695213 
	C226.553864,28.606951 226.217148,27.822550 225.880447,27.038151 
z"/>
<path fill="#F6B103" opacity="1.000000" stroke="none" 
	d="
M226.359009,59.793762 
	C225.214264,59.237167 224.429504,58.640961 223.322357,58.022377 
	C223.247192,57.472485 223.494385,56.944973 224.043274,55.816902 
	C225.857559,54.490898 227.370132,53.765450 228.882706,53.040001 
	C229.761459,53.250229 230.640213,53.460453 231.784271,53.888618 
	C232.049576,54.106567 231.984390,54.573345 231.756500,54.916065 
	C231.334167,55.430462 231.161697,55.621941 231.011230,55.833221 
	C229.580475,57.140194 228.149719,58.447174 226.359009,59.793762 
z"/>
<path fill="#F6B103" opacity="1.000000" stroke="none" 
	d="
M229.000000,36.000000 
	C228.489914,35.696857 227.979813,35.393711 227.227219,34.656078 
	C227.045364,33.481079 227.106003,32.740566 227.492889,32.019905 
	C229.157196,32.689095 230.495300,33.338436 231.833405,33.987774 
	C231.874435,34.159801 231.915451,34.331837 231.742569,34.881416 
	C231.334213,35.430656 231.161743,35.622162 231.011292,35.833477 
	C231.011292,35.833477 230.573608,35.983635 230.065475,36.002186 
	C229.371567,36.013824 229.185776,36.006912 229.000000,36.000000 
z"/>
<path fill="#F6B103" opacity="1.000000" stroke="none" 
	d="
M231.992874,33.661400 
	C230.495300,33.338436 229.157196,32.689095 227.422150,31.688898 
	C227.072357,30.891722 227.119537,30.445398 227.166718,29.999077 
	C228.785812,29.999249 230.404922,29.999420 232.428574,29.999439 
	C232.606201,31.111202 232.379272,32.223114 231.992874,33.661400 
z"/>
<path fill="#F6B103" opacity="1.000000" stroke="none" 
	d="
M228.850037,36.186649 
	C229.185776,36.006912 229.371567,36.013824 229.835999,36.031643 
	C229.969482,36.628693 229.824310,37.214832 229.397522,37.921074 
	C228.977295,37.485218 228.838699,36.929256 228.850037,36.186649 
z"/>
<path fill="#F6B103" opacity="1.000000" stroke="none" 
	d="
M214.060730,15.628857 
	C213.545334,15.741159 212.975967,15.524572 212.179398,15.099745 
	C212.637039,15.027659 213.321899,15.163814 214.060730,15.628857 
z"/>
<path fill="#F6B103" opacity="1.000000" stroke="none" 
	d="
M212.346054,66.900436 
	C212.511551,66.280869 213.023422,65.728333 213.825134,65.108902 
	C213.640793,65.683830 213.166595,66.325645 212.346054,66.900436 
z"/>
<path fill="#F6B103" opacity="1.000000" stroke="none" 
	d="
M231.269196,35.868019 
	C231.161743,35.622162 231.334213,35.430656 231.681030,35.139462 
	C231.731277,35.314163 231.629181,35.608360 231.269196,35.868019 
z"/>
<path fill="#F6B103" opacity="1.000000" stroke="none" 
	d="
M231.269104,55.867825 
	C231.161697,55.621941 231.334167,55.430462 231.680969,55.139282 
	C231.731201,55.313995 231.629105,55.608212 231.269104,55.867825 
z"/>
<path fill="#000000" opacity="1.000000" stroke="none" 
	d="
M296.999268,28.050573 
	C299.168732,34.969513 295.172760,38.297031 285.400330,37.821960 
	C285.400330,33.827282 285.400330,29.798025 285.400330,25.375202 
	C289.347015,24.982294 293.548004,23.741282 296.999268,28.050573 
z"/>
<path fill="#000000" opacity="1.000000" stroke="none" 
	d="
M330.286194,53.192017 
	C327.421631,56.009239 324.268127,57.048889 321.047760,55.389919 
	C316.563324,53.079739 315.910614,48.654949 316.006500,44.101490 
	C316.127716,38.344398 320.112488,32.972626 325.895599,33.966419 
	C329.789001,34.635475 333.855255,41.173721 332.878387,46.030258 
	C332.405182,48.382763 331.353790,50.618961 330.286194,53.192017 
z"/>
<path fill="#000000" opacity="1.000000" stroke="none" 
	d="
M176.509277,39.032078 
	C176.855728,42.008137 176.897278,44.666531 177.006424,47.322147 
	C177.196777,51.953632 174.991562,54.991043 170.565399,55.899803 
	C165.993317,56.838531 162.590942,54.689865 161.782318,50.142467 
	C161.176239,46.733986 161.388016,43.052711 161.933823,39.603363 
	C162.457001,36.296864 164.650543,34.076164 168.390869,33.993202 
	C172.027252,33.912540 174.839233,35.113064 176.509277,39.032078 
z"/>
<path fill="#000000" opacity="1.000000" stroke="none" 
	d="
M62.780701,46.637383 
	C64.883415,46.245823 66.642494,46.103954 68.350807,45.966183 
	C69.272743,50.956818 66.402542,56.352859 62.489719,56.681686 
	C59.869663,56.901875 57.445900,55.757439 57.048698,52.605278 
	C56.543701,48.597675 58.570045,46.842369 62.780701,46.637383 
z"/>
<path fill="#000000" opacity="1.000000" stroke="none" 
	d="
M388.919678,47.201603 
	C389.373077,51.822109 388.574677,55.555840 383.638611,55.958733 
	C381.808929,56.108078 379.233185,54.888458 378.136536,53.434303 
	C377.439667,52.510197 378.390259,48.806332 379.383881,48.433708 
	C382.336121,47.326557 385.675323,47.251369 388.919678,47.201603 
z"/>
<path fill="#000000" opacity="1.000000" stroke="none" 
	d="
M228.560211,52.863579 
	C227.370132,53.765450 225.857559,54.490898 224.154144,55.547577 
	C221.076996,55.585800 218.180145,55.368416 215.308777,54.968155 
	C213.853622,54.765316 212.444458,54.232395 210.996201,52.972725 
	C210.985580,49.679333 210.794296,47.237106 211.091202,44.855759 
	C211.224640,43.785587 212.333832,42.837082 213.000259,41.833366 
	C214.717407,41.881462 216.434540,41.929554 218.575836,41.905495 
	C221.740631,42.802643 224.481277,43.771942 227.551270,44.889633 
	C227.999664,47.587738 228.118698,50.137451 228.560211,52.863579 
z"/>
<path fill="#000000" opacity="1.000000" stroke="none" 
	d="
M227.028641,29.695213 
	C227.119537,30.445398 227.072357,30.891722 227.095917,31.669050 
	C227.106003,32.740566 227.045364,33.481079 226.933777,34.590782 
	C225.181335,35.647419 223.479828,36.334858 221.389099,37.094406 
	C217.868790,37.166523 214.737732,37.166523 211.304657,37.166523 
	C211.304657,33.028122 211.304657,29.303604 211.304657,24.977814 
	C214.557144,24.977814 217.821609,24.977814 221.543488,24.905544 
	C223.092682,25.486111 224.184464,26.138945 225.578339,26.914963 
	C226.217148,27.822550 226.553864,28.606951 227.028641,29.695213 
z"/>
<path fill="#F6B103" opacity="1.000000" stroke="none" 
	d="
M212.850067,41.530849 
	C212.333832,42.837082 211.224640,43.785587 211.091202,44.855759 
	C210.794296,47.237106 210.985580,49.679333 210.905640,52.548553 
	C210.372070,49.105904 209.910767,45.211456 209.449463,41.317005 
	C210.532928,41.287445 211.616409,41.257885 212.850067,41.530849 
z"/>
</svg>